<svg version="1.1"
	 xmlns="http://www.w3.org/2000/svg" xmlns:xlink="http://www.w3.org/1999/xlink" xmlns:a="http://ns.adobe.com/AdobeSVGViewerExtensions/3.0/"
	 x="0px" y="0px" width="163.1px" height="156.3px" viewBox="0 0 163.1 156.3" style="enable-background:new 0 0 163.1 156.3;"
	 xml:space="preserve">
<style type="text/css">
	.st0{fill:#F15D2A;}
</style>
<defs>
</defs>
<path class="st0" d="M162.6,90.1L136,8.3c-1.5-4.6-6.7-8.3-11.5-8.3h-86c-4.8,0-10,3.7-11.5,8.3L0.5,90.1C-1,94.7,1,100.8,4.9,103.6
	l69.5,50.5c3.9,2.8,10.3,2.8,14.2,0l69.5-50.6C162.1,100.8,164.1,94.7,162.6,90.1z M119.4,105.2L87,128.8c-2.8,2-7.4,2-10.2,0
	l-32.4-23.6c-2.8-2-2.3-3.7,1.2-3.7h72.7C121.7,101.6,122.2,103.2,119.4,105.2z M132.7,82.3H31c-3.4,0-5.4-2.7-4.3-6L43,26.2
	c1-3.3,4.8-6,8.2-6h61.3c3.4,0,7.2,2.7,8.2,6l2.8,8.5c1.1,3.3-0.9,5.9-4.3,5.9H68.8c-3.5,0-7.1,2.7-8.1,6l-2.7,8.7c-1,3.3,1,6,4.4,6
	h63.6c3.4,0,7.1,2.7,8.2,5.9l2.9,9C138.1,79.6,136.1,82.3,132.7,82.3z"/>
</svg>